<?xml version="1.0" standalone="no"?>
<!DOCTYPE svg PUBLIC "-//W3C//DTD SVG 20010904//EN"
 "http://www.w3.org/TR/2001/REC-SVG-20010904/DTD/svg10.dtd">
<svg version="1.0" xmlns="http://www.w3.org/2000/svg"
 width="32.000000pt" height="32.000000pt" viewBox="0 0 32.000000 32.000000"
 preserveAspectRatio="xMidYMid meet">

<g transform="translate(0.000000,32.000000) scale(0.100000,-0.100000)"
fill="#000000" stroke="none">
<path d="M189 287 c14 -18 -45 -47 -95 -47 -26 0 -43 -8 -65 -29 -16 -16 -29
-34 -29 -39 0 -18 46 -92 53 -86 4 4 13 1 22 -6 9 -7 27 -10 45 -6 40 7 84
-12 69 -31 -9 -11 -2 -13 40 -13 28 0 51 2 51 4 0 1 -5 18 -11 35 -8 22 -15
29 -22 22 -7 -7 -23 -3 -51 11 -53 28 -76 32 -76 13 0 -8 6 -15 13 -15 6 0 4
-5 -6 -11 -29 -17 -77 7 -77 37 0 20 4 24 23 21 12 -2 16 -2 10 0 -7 3 -13 17
-13 31 1 25 2 25 14 10 16 -22 36 -23 36 -4 0 23 21 30 38 12 11 -10 12 -16 4
-16 -7 0 -12 -6 -12 -14 0 -8 -8 -17 -17 -20 -10 -2 0 -2 22 1 38 6 39 5 25
-13 -14 -18 -14 -18 6 -2 23 20 51 23 56 7 3 -8 16 -5 41 8 l38 19 -37 18
c-29 13 -39 14 -45 5 -6 -10 -13 -10 -31 -2 -13 6 -30 13 -38 16 -9 2 0 12 26
25 28 14 44 18 51 11 7 -7 14 0 22 22 6 17 11 34 11 35 0 2 -23 4 -51 4 -42 0
-49 -3 -40 -13z m-159 -123 c0 -14 -4 -23 -10 -19 -5 3 -10 15 -10 26 0 10 5
19 10 19 6 0 10 -12 10 -26z"/>
<path d="M80 115 c0 -8 5 -15 10 -15 6 0 10 7 10 15 0 8 -4 15 -10 15 -5 0
-10 -7 -10 -15z"/>
</g>
</svg>
